<svg xmlns="http://www.w3.org/2000/svg" width="5" height="20" viewBox="0 0 5 20">
  <metadata><?xpacket begin="﻿" id="W5M0MpCehiHzreSzNTczkc9d"?>
<x:xmpmeta xmlns:x="adobe:ns:meta/" x:xmptk="Adobe XMP Core 5.6-c138 79.159824, 2016/09/14-01:09:01        ">
   <rdf:RDF xmlns:rdf="http://www.w3.org/1999/02/22-rdf-syntax-ns#">
      <rdf:Description rdf:about=""/>
   </rdf:RDF>
</x:xmpmeta>
                                                                                                    
                                                                                                    
                                                                                                    
                                                                                                    
                                                                                                    
                                                                                                    
                                                                                                    
                                                                                                    
                                                                                                    
                                                                                                    
                                                                                                    
                                                                                                    
                                                                                                    
                                                                                                    
                                                                                                    
                                                                                                    
                                                                                                    
                                                                                                    
                                                                                                    
                                                                                                    
                           
<?xpacket end="w"?></metadata>
<defs>
    <style>
      .cls-1 {
        fill: #a3b1c4;
        fill-rule: evenodd;
      }
    </style>
  </defs>
  <path id="Icon" class="cls-1" d="M1495.01,2647.93a2.144,2.144,0,0,1,2.29-1.94,2.1,2.1,0,0,1,2.14,2.06,2.127,2.127,0,0,1-2.28,1.94A2.1,2.1,0,0,1,1495.01,2647.93Zm0.27-7.99a2.137,2.137,0,0,1,2.29-1.94,2.11,2.11,0,0,1,2.15,2.06,2.144,2.144,0,0,1-2.29,1.94A2.116,2.116,0,0,1,1495.28,2639.94Zm0.28-8a2.12,2.12,0,0,1,2.28-1.93,2.1,2.1,0,0,1,2.15,2.06,2.129,2.129,0,0,1-2.29,1.93A2.088,2.088,0,0,1,1495.56,2631.94Z" transform="translate(-1495 -2630)"/>
</svg>
